<svg xmlns="http://www.w3.org/2000/svg" viewBox="0 0 495.61 370.1"><defs><style>.cls-1{fill:#fff;}</style></defs><title>Asset 3</title><g id="Layer_2" data-name="Layer 2"><g id="Layer_1-2" data-name="Layer 1"><rect class="cls-1" y="102.84" width="171.23" height="171.23" rx="63.98" ry="63.98"/><path class="cls-1" d="M102.64,128,222.75,7.84c.45-.45.89-.93,1.38-1.33C235-2.34,250.55,1.15,250,34.11l-5,300.63c-.29,32.88-16,37.92-26.82,29.71a13.57,13.57,0,0,1-1.34-1.29L100.67,247C68.47,214.79,69.36,161.22,102.64,128Z"/><path class="cls-1" d="M304,115.66s56,71,0,148c-9,40,32,34,40,23s70-97,0-195C313,67.66,299,97.66,304,115.66Z"/><path class="cls-1" d="M388,42.66s139,134-6,292c-8,27,9.39,43.95,33,31,31-17,163-182,3-360C390-13.34,360,19.66,388,42.66Z"/></g></g></svg>